<mxfile host="app.diagrams.net" agent="Mozilla/5.0 (Windows NT 10.0; Win64; x64) AppleWebKit/537.36 (KHTML, like Gecko) Chrome/131.0.0.0 Safari/537.36 Edg/131.0.0.0" version="25.0.3">
  <diagram name="Page-1" id="tKeHDoJ6P9MjZUOdYm-5">
    <mxGraphModel dx="2339" dy="1907" grid="1" gridSize="10" guides="1" tooltips="1" connect="1" arrows="1" fold="1" page="1" pageScale="1" pageWidth="850" pageHeight="1100" math="0" shadow="0">
      <root>
        <mxCell id="0" />
        <mxCell id="1" parent="0" />
        <mxCell id="RB_fGYOwhIfE2NvK8vy9-2" value="" style="edgeStyle=orthogonalEdgeStyle;rounded=0;orthogonalLoop=1;jettySize=auto;html=1;" edge="1" parent="1" source="RB_fGYOwhIfE2NvK8vy9-3" target="RB_fGYOwhIfE2NvK8vy9-5">
          <mxGeometry relative="1" as="geometry" />
        </mxCell>
        <mxCell id="RB_fGYOwhIfE2NvK8vy9-3" value="&lt;font data-font-src=&quot;https://fonts.googleapis.com/css?family=Sarabun&quot; face=&quot;Sarabun&quot;&gt;Start&lt;/font&gt;" style="ellipse;whiteSpace=wrap;html=1;" vertex="1" parent="1">
          <mxGeometry x="-664.0000000000001" y="-1040" width="130" height="30" as="geometry" />
        </mxCell>
        <mxCell id="RB_fGYOwhIfE2NvK8vy9-4" value="" style="edgeStyle=orthogonalEdgeStyle;rounded=0;orthogonalLoop=1;jettySize=auto;html=1;" edge="1" parent="1" source="RB_fGYOwhIfE2NvK8vy9-5" target="RB_fGYOwhIfE2NvK8vy9-7">
          <mxGeometry relative="1" as="geometry" />
        </mxCell>
        <mxCell id="RB_fGYOwhIfE2NvK8vy9-5" value="เปิดไฟล์&amp;nbsp;a15-3.txt&amp;nbsp;&lt;span style=&quot;color: rgba(0, 0, 0, 0); font-family: monospace; font-size: 0px; text-align: start; text-wrap-mode: nowrap;&quot;&gt;%3CmxGraphModel%3E%3Croot%3E%3CmxCell%20id%3D%220%22%2F%3E%3CmxCell%20id%3D%221%22%20parent%3D%220%22%2F%3E%3CmxCell%20id%3D%222%22%20value%3D%22%E0%B8%81%E0%B8%B3%E0%B8%AB%E0%B8%99%E0%B8%94%E0%B8%95%E0%B8%B1%E0%B8%A7%E0%B9%81%E0%B8%9B%E0%B8%A3%20arr%22%20style%3D%22rounded%3D0%3BwhiteSpace%3Dwrap%3Bhtml%3D1%3B%22%20vertex%3D%221%22%20parent%3D%221%22%3E%3CmxGeometry%20x%3D%22-680%22%20y%3D%22-980%22%20width%3D%22160%22%20height%3D%2240%22%20as%3D%22geometry%22%2F%3E%3C%2FmxCell%3E%3C%2Froot%3E%3C%2FmxGraphModel%3E&lt;/span&gt;" style="rounded=0;whiteSpace=wrap;html=1;" vertex="1" parent="1">
          <mxGeometry x="-680" y="-980" width="160" height="40" as="geometry" />
        </mxCell>
        <mxCell id="RB_fGYOwhIfE2NvK8vy9-6" value="" style="edgeStyle=orthogonalEdgeStyle;rounded=0;orthogonalLoop=1;jettySize=auto;html=1;" edge="1" parent="1" source="RB_fGYOwhIfE2NvK8vy9-7" target="RB_fGYOwhIfE2NvK8vy9-13">
          <mxGeometry relative="1" as="geometry" />
        </mxCell>
        <mxCell id="RB_fGYOwhIfE2NvK8vy9-7" value="เปิดได้หรือไม่" style="rhombus;whiteSpace=wrap;html=1;" vertex="1" parent="1">
          <mxGeometry x="-664" y="-910" width="128" height="80" as="geometry" />
        </mxCell>
        <mxCell id="RB_fGYOwhIfE2NvK8vy9-8" value="" style="edgeStyle=orthogonalEdgeStyle;rounded=0;orthogonalLoop=1;jettySize=auto;html=1;" edge="1" parent="1" source="RB_fGYOwhIfE2NvK8vy9-9" target="RB_fGYOwhIfE2NvK8vy9-66">
          <mxGeometry relative="1" as="geometry" />
        </mxCell>
        <mxCell id="RB_fGYOwhIfE2NvK8vy9-9" value="อ่านไฟล์&amp;nbsp;&amp;nbsp;a15-3.txt&amp;nbsp;" style="rounded=0;whiteSpace=wrap;html=1;" vertex="1" parent="1">
          <mxGeometry x="-678.5" y="-480" width="160" height="40" as="geometry" />
        </mxCell>
        <mxCell id="RB_fGYOwhIfE2NvK8vy9-10" value="" style="edgeStyle=orthogonalEdgeStyle;rounded=0;orthogonalLoop=1;jettySize=auto;html=1;" edge="1" parent="1" source="RB_fGYOwhIfE2NvK8vy9-11">
          <mxGeometry relative="1" as="geometry">
            <mxPoint x="-598.48" y="-300" as="targetPoint" />
          </mxGeometry>
        </mxCell>
        <mxCell id="RB_fGYOwhIfE2NvK8vy9-11" value="เอาข้อความใน&amp;nbsp;&amp;nbsp;a15-3.txt&amp;nbsp; ใส่ stuck num" style="rounded=0;whiteSpace=wrap;html=1;" vertex="1" parent="1">
          <mxGeometry x="-678.5" y="-360" width="160" height="40" as="geometry" />
        </mxCell>
        <mxCell id="RB_fGYOwhIfE2NvK8vy9-12" style="edgeStyle=orthogonalEdgeStyle;rounded=0;orthogonalLoop=1;jettySize=auto;html=1;entryX=1;entryY=0.5;entryDx=0;entryDy=0;" edge="1" parent="1" source="RB_fGYOwhIfE2NvK8vy9-13" target="RB_fGYOwhIfE2NvK8vy9-16">
          <mxGeometry relative="1" as="geometry">
            <Array as="points">
              <mxPoint x="-230" y="-870" />
              <mxPoint x="-230" y="425" />
            </Array>
          </mxGeometry>
        </mxCell>
        <mxCell id="RB_fGYOwhIfE2NvK8vy9-13" value="Err" style="rounded=0;whiteSpace=wrap;html=1;shape=parallelogram;perimeter=parallelogramPerimeter;fixedSize=1;" vertex="1" parent="1">
          <mxGeometry x="-470" y="-890" width="160" height="40" as="geometry" />
        </mxCell>
        <mxCell id="RB_fGYOwhIfE2NvK8vy9-14" value="&lt;font data-font-src=&quot;https://fonts.googleapis.com/css?family=Sarabun&quot; face=&quot;Sarabun&quot;&gt;Start&lt;/font&gt;" style="ellipse;whiteSpace=wrap;html=1;" vertex="1" parent="1">
          <mxGeometry x="-666.0000000000001" y="470" width="130" height="30" as="geometry" />
        </mxCell>
        <mxCell id="RB_fGYOwhIfE2NvK8vy9-15" value="" style="edgeStyle=orthogonalEdgeStyle;rounded=0;orthogonalLoop=1;jettySize=auto;html=1;" edge="1" parent="1" source="RB_fGYOwhIfE2NvK8vy9-16">
          <mxGeometry relative="1" as="geometry">
            <mxPoint x="-601.0000000000001" y="470" as="targetPoint" />
          </mxGeometry>
        </mxCell>
        <mxCell id="RB_fGYOwhIfE2NvK8vy9-16" value="" style="ellipse;whiteSpace=wrap;html=1;aspect=fixed;" vertex="1" parent="1">
          <mxGeometry x="-616" y="410" width="30" height="30" as="geometry" />
        </mxCell>
        <mxCell id="RB_fGYOwhIfE2NvK8vy9-17" value="" style="edgeStyle=orthogonalEdgeStyle;rounded=0;orthogonalLoop=1;jettySize=auto;html=1;" edge="1" parent="1" target="RB_fGYOwhIfE2NvK8vy9-18">
          <mxGeometry relative="1" as="geometry">
            <mxPoint x="-599" y="-830" as="sourcePoint" />
          </mxGeometry>
        </mxCell>
        <mxCell id="RB_fGYOwhIfE2NvK8vy9-18" value="กำหนดตัวแปร num 1" style="rounded=0;whiteSpace=wrap;html=1;" vertex="1" parent="1">
          <mxGeometry x="-679" y="-800" width="160" height="40" as="geometry" />
        </mxCell>
        <mxCell id="RB_fGYOwhIfE2NvK8vy9-19" value="" style="edgeStyle=orthogonalEdgeStyle;rounded=0;orthogonalLoop=1;jettySize=auto;html=1;" edge="1" parent="1" target="RB_fGYOwhIfE2NvK8vy9-22">
          <mxGeometry relative="1" as="geometry">
            <mxPoint x="-598.5" y="-760" as="sourcePoint" />
          </mxGeometry>
        </mxCell>
        <mxCell id="RB_fGYOwhIfE2NvK8vy9-20" value="" style="edgeStyle=orthogonalEdgeStyle;rounded=0;orthogonalLoop=1;jettySize=auto;html=1;" edge="1" parent="1" target="RB_fGYOwhIfE2NvK8vy9-27">
          <mxGeometry relative="1" as="geometry">
            <mxPoint x="-599.0384615384614" y="-550" as="sourcePoint" />
          </mxGeometry>
        </mxCell>
        <mxCell id="RB_fGYOwhIfE2NvK8vy9-21" value="" style="edgeStyle=orthogonalEdgeStyle;rounded=0;orthogonalLoop=1;jettySize=auto;html=1;" edge="1" parent="1" source="RB_fGYOwhIfE2NvK8vy9-22" target="RB_fGYOwhIfE2NvK8vy9-32">
          <mxGeometry relative="1" as="geometry" />
        </mxCell>
        <mxCell id="RB_fGYOwhIfE2NvK8vy9-22" value="กำหนดตัวแปร num 2" style="rounded=0;whiteSpace=wrap;html=1;" vertex="1" parent="1">
          <mxGeometry x="-678.5" y="-730" width="160" height="40" as="geometry" />
        </mxCell>
        <mxCell id="RB_fGYOwhIfE2NvK8vy9-23" style="edgeStyle=orthogonalEdgeStyle;rounded=0;orthogonalLoop=1;jettySize=auto;html=1;entryX=0;entryY=0.5;entryDx=0;entryDy=0;" edge="1" parent="1" source="RB_fGYOwhIfE2NvK8vy9-25" target="RB_fGYOwhIfE2NvK8vy9-27">
          <mxGeometry relative="1" as="geometry">
            <Array as="points">
              <mxPoint x="-750" y="190" />
              <mxPoint x="-750" y="-515" />
            </Array>
          </mxGeometry>
        </mxCell>
        <mxCell id="RB_fGYOwhIfE2NvK8vy9-24" value="" style="edgeStyle=orthogonalEdgeStyle;rounded=0;orthogonalLoop=1;jettySize=auto;html=1;" edge="1" parent="1" source="RB_fGYOwhIfE2NvK8vy9-25" target="RB_fGYOwhIfE2NvK8vy9-62">
          <mxGeometry relative="1" as="geometry" />
        </mxCell>
        <mxCell id="RB_fGYOwhIfE2NvK8vy9-25" value="อ่านครบหรือไม่" style="rhombus;whiteSpace=wrap;html=1;" vertex="1" parent="1">
          <mxGeometry x="-663" y="150" width="128" height="80" as="geometry" />
        </mxCell>
        <mxCell id="RB_fGYOwhIfE2NvK8vy9-26" value="" style="edgeStyle=orthogonalEdgeStyle;rounded=0;orthogonalLoop=1;jettySize=auto;html=1;" edge="1" parent="1" source="RB_fGYOwhIfE2NvK8vy9-27" target="RB_fGYOwhIfE2NvK8vy9-9">
          <mxGeometry relative="1" as="geometry" />
        </mxCell>
        <mxCell id="RB_fGYOwhIfE2NvK8vy9-27" value="" style="ellipse;whiteSpace=wrap;html=1;aspect=fixed;" vertex="1" parent="1">
          <mxGeometry x="-614" y="-530" width="30" height="30" as="geometry" />
        </mxCell>
        <mxCell id="RB_fGYOwhIfE2NvK8vy9-28" value="T" style="text;html=1;align=center;verticalAlign=middle;resizable=0;points=[];autosize=1;strokeColor=none;fillColor=none;" vertex="1" parent="1">
          <mxGeometry x="-590" y="-840" width="30" height="30" as="geometry" />
        </mxCell>
        <mxCell id="RB_fGYOwhIfE2NvK8vy9-29" value="F" style="text;html=1;align=center;verticalAlign=middle;resizable=0;points=[];autosize=1;strokeColor=none;fillColor=none;" vertex="1" parent="1">
          <mxGeometry x="-540" y="-900" width="30" height="30" as="geometry" />
        </mxCell>
        <mxCell id="RB_fGYOwhIfE2NvK8vy9-30" value="" style="edgeStyle=orthogonalEdgeStyle;rounded=0;orthogonalLoop=1;jettySize=auto;html=1;" edge="1" parent="1" target="RB_fGYOwhIfE2NvK8vy9-16">
          <mxGeometry relative="1" as="geometry">
            <mxPoint x="-600.545" y="370.0000000000002" as="sourcePoint" />
          </mxGeometry>
        </mxCell>
        <mxCell id="RB_fGYOwhIfE2NvK8vy9-31" value="" style="edgeStyle=orthogonalEdgeStyle;rounded=0;orthogonalLoop=1;jettySize=auto;html=1;" edge="1" parent="1" source="RB_fGYOwhIfE2NvK8vy9-32" target="RB_fGYOwhIfE2NvK8vy9-43">
          <mxGeometry relative="1" as="geometry" />
        </mxCell>
        <mxCell id="RB_fGYOwhIfE2NvK8vy9-32" value="กำหนดตัวแปร most grade" style="rounded=0;whiteSpace=wrap;html=1;" vertex="1" parent="1">
          <mxGeometry x="-678.5" y="-660" width="160" height="40" as="geometry" />
        </mxCell>
        <mxCell id="RB_fGYOwhIfE2NvK8vy9-33" value="" style="edgeStyle=orthogonalEdgeStyle;rounded=0;orthogonalLoop=1;jettySize=auto;html=1;" edge="1" parent="1" source="RB_fGYOwhIfE2NvK8vy9-34" target="RB_fGYOwhIfE2NvK8vy9-36">
          <mxGeometry relative="1" as="geometry" />
        </mxCell>
        <mxCell id="RB_fGYOwhIfE2NvK8vy9-34" value="start stuck user" style="shape=process;whiteSpace=wrap;html=1;backgroundOutline=1;" vertex="1" parent="1">
          <mxGeometry x="90" y="-1073.75" width="120" height="65" as="geometry" />
        </mxCell>
        <mxCell id="RB_fGYOwhIfE2NvK8vy9-35" value="" style="edgeStyle=orthogonalEdgeStyle;rounded=0;orthogonalLoop=1;jettySize=auto;html=1;" edge="1" parent="1" source="RB_fGYOwhIfE2NvK8vy9-36" target="RB_fGYOwhIfE2NvK8vy9-38">
          <mxGeometry relative="1" as="geometry" />
        </mxCell>
        <mxCell id="RB_fGYOwhIfE2NvK8vy9-36" value="กำหนดตัวแปร name" style="rounded=0;whiteSpace=wrap;html=1;" vertex="1" parent="1">
          <mxGeometry x="70" y="-978.75" width="160" height="40" as="geometry" />
        </mxCell>
        <mxCell id="RB_fGYOwhIfE2NvK8vy9-37" value="" style="edgeStyle=orthogonalEdgeStyle;rounded=0;orthogonalLoop=1;jettySize=auto;html=1;" edge="1" parent="1" source="RB_fGYOwhIfE2NvK8vy9-38" target="RB_fGYOwhIfE2NvK8vy9-41">
          <mxGeometry relative="1" as="geometry" />
        </mxCell>
        <mxCell id="RB_fGYOwhIfE2NvK8vy9-38" value="กำหนดตัวแปร grade" style="rounded=0;whiteSpace=wrap;html=1;" vertex="1" parent="1">
          <mxGeometry x="70" y="-908.75" width="160" height="40" as="geometry" />
        </mxCell>
        <mxCell id="RB_fGYOwhIfE2NvK8vy9-39" value="" style="edgeStyle=orthogonalEdgeStyle;rounded=0;orthogonalLoop=1;jettySize=auto;html=1;" edge="1" parent="1" target="RB_fGYOwhIfE2NvK8vy9-42">
          <mxGeometry relative="1" as="geometry">
            <mxPoint x="149.9655172413793" y="-730" as="sourcePoint" />
          </mxGeometry>
        </mxCell>
        <mxCell id="RB_fGYOwhIfE2NvK8vy9-40" value="" style="edgeStyle=orthogonalEdgeStyle;rounded=0;orthogonalLoop=1;jettySize=auto;html=1;" edge="1" parent="1" source="RB_fGYOwhIfE2NvK8vy9-41" target="RB_fGYOwhIfE2NvK8vy9-64">
          <mxGeometry relative="1" as="geometry" />
        </mxCell>
        <mxCell id="RB_fGYOwhIfE2NvK8vy9-41" value="กำหนดตัวแปร sex" style="rounded=0;whiteSpace=wrap;html=1;" vertex="1" parent="1">
          <mxGeometry x="70" y="-838.75" width="160" height="40" as="geometry" />
        </mxCell>
        <mxCell id="RB_fGYOwhIfE2NvK8vy9-42" value="end stuck user" style="shape=process;whiteSpace=wrap;html=1;backgroundOutline=1;" vertex="1" parent="1">
          <mxGeometry x="90" y="-692.5" width="120" height="65" as="geometry" />
        </mxCell>
        <mxCell id="RB_fGYOwhIfE2NvK8vy9-43" value="กำหนดตัวแปร most name" style="rounded=0;whiteSpace=wrap;html=1;" vertex="1" parent="1">
          <mxGeometry x="-678.5" y="-590" width="160" height="40" as="geometry" />
        </mxCell>
        <mxCell id="RB_fGYOwhIfE2NvK8vy9-44" value="เอาข้อความใน&amp;nbsp;&amp;nbsp;a15-3.txt&amp;nbsp; ใส่ stuck grade" style="rounded=0;whiteSpace=wrap;html=1;" vertex="1" parent="1">
          <mxGeometry x="-678.5" y="-300" width="160" height="40" as="geometry" />
        </mxCell>
        <mxCell id="RB_fGYOwhIfE2NvK8vy9-45" value="" style="edgeStyle=orthogonalEdgeStyle;rounded=0;orthogonalLoop=1;jettySize=auto;html=1;" edge="1" parent="1">
          <mxGeometry relative="1" as="geometry">
            <mxPoint x="-598.5" y="-270" as="sourcePoint" />
            <mxPoint x="-598.98" y="-240" as="targetPoint" />
          </mxGeometry>
        </mxCell>
        <mxCell id="RB_fGYOwhIfE2NvK8vy9-46" value="" style="edgeStyle=orthogonalEdgeStyle;rounded=0;orthogonalLoop=1;jettySize=auto;html=1;" edge="1" parent="1" source="RB_fGYOwhIfE2NvK8vy9-47" target="RB_fGYOwhIfE2NvK8vy9-50">
          <mxGeometry relative="1" as="geometry" />
        </mxCell>
        <mxCell id="RB_fGYOwhIfE2NvK8vy9-47" value="เอาข้อความใน&amp;nbsp;&amp;nbsp;a15-3.txt&amp;nbsp; ใส่ stuck sex" style="rounded=0;whiteSpace=wrap;html=1;" vertex="1" parent="1">
          <mxGeometry x="-679" y="-240" width="160" height="40" as="geometry" />
        </mxCell>
        <mxCell id="RB_fGYOwhIfE2NvK8vy9-48" value="" style="edgeStyle=orthogonalEdgeStyle;rounded=0;orthogonalLoop=1;jettySize=auto;html=1;" edge="1" parent="1" source="RB_fGYOwhIfE2NvK8vy9-50" target="RB_fGYOwhIfE2NvK8vy9-52">
          <mxGeometry relative="1" as="geometry" />
        </mxCell>
        <mxCell id="RB_fGYOwhIfE2NvK8vy9-49" value="" style="edgeStyle=orthogonalEdgeStyle;rounded=0;orthogonalLoop=1;jettySize=auto;html=1;" edge="1" parent="1" source="RB_fGYOwhIfE2NvK8vy9-50" target="RB_fGYOwhIfE2NvK8vy9-58">
          <mxGeometry relative="1" as="geometry" />
        </mxCell>
        <mxCell id="RB_fGYOwhIfE2NvK8vy9-50" value="stuck grade มากกว่า&lt;br&gt;&lt;div&gt;&lt;span style=&quot;background-color: initial;&quot;&gt;most grade หรือไม่&lt;/span&gt;&amp;nbsp;&lt;/div&gt;" style="rhombus;whiteSpace=wrap;html=1;" vertex="1" parent="1">
          <mxGeometry x="-662.5" y="-170" width="128" height="80" as="geometry" />
        </mxCell>
        <mxCell id="RB_fGYOwhIfE2NvK8vy9-51" value="" style="edgeStyle=orthogonalEdgeStyle;rounded=0;orthogonalLoop=1;jettySize=auto;html=1;" edge="1" parent="1" source="RB_fGYOwhIfE2NvK8vy9-52" target="RB_fGYOwhIfE2NvK8vy9-54">
          <mxGeometry relative="1" as="geometry" />
        </mxCell>
        <mxCell id="RB_fGYOwhIfE2NvK8vy9-52" value="most grade&amp;nbsp; = stuck grade" style="rounded=0;whiteSpace=wrap;html=1;" vertex="1" parent="1">
          <mxGeometry x="-470" y="-150" width="160" height="40" as="geometry" />
        </mxCell>
        <mxCell id="RB_fGYOwhIfE2NvK8vy9-53" style="edgeStyle=orthogonalEdgeStyle;rounded=0;orthogonalLoop=1;jettySize=auto;html=1;entryX=1;entryY=0.5;entryDx=0;entryDy=0;" edge="1" parent="1" source="RB_fGYOwhIfE2NvK8vy9-54" target="RB_fGYOwhIfE2NvK8vy9-58">
          <mxGeometry relative="1" as="geometry">
            <Array as="points">
              <mxPoint x="-390" y="5" />
            </Array>
          </mxGeometry>
        </mxCell>
        <mxCell id="RB_fGYOwhIfE2NvK8vy9-54" value="most name = stuck name" style="rounded=0;whiteSpace=wrap;html=1;" vertex="1" parent="1">
          <mxGeometry x="-470" y="-70" width="160" height="40" as="geometry" />
        </mxCell>
        <mxCell id="RB_fGYOwhIfE2NvK8vy9-55" value="" style="edgeStyle=orthogonalEdgeStyle;rounded=0;orthogonalLoop=1;jettySize=auto;html=1;" edge="1" parent="1" source="RB_fGYOwhIfE2NvK8vy9-56" target="RB_fGYOwhIfE2NvK8vy9-25">
          <mxGeometry relative="1" as="geometry" />
        </mxCell>
        <mxCell id="RB_fGYOwhIfE2NvK8vy9-56" value="เพิ่มรอบ stuck" style="rounded=0;whiteSpace=wrap;html=1;" vertex="1" parent="1">
          <mxGeometry x="-678.5" y="70" width="160" height="40" as="geometry" />
        </mxCell>
        <mxCell id="RB_fGYOwhIfE2NvK8vy9-57" value="" style="edgeStyle=orthogonalEdgeStyle;rounded=0;orthogonalLoop=1;jettySize=auto;html=1;" edge="1" parent="1" source="RB_fGYOwhIfE2NvK8vy9-58" target="RB_fGYOwhIfE2NvK8vy9-56">
          <mxGeometry relative="1" as="geometry" />
        </mxCell>
        <mxCell id="RB_fGYOwhIfE2NvK8vy9-58" value="" style="ellipse;whiteSpace=wrap;html=1;aspect=fixed;" vertex="1" parent="1">
          <mxGeometry x="-613.5" y="-10" width="30" height="30" as="geometry" />
        </mxCell>
        <mxCell id="RB_fGYOwhIfE2NvK8vy9-59" value="T" style="text;html=1;align=center;verticalAlign=middle;resizable=0;points=[];autosize=1;strokeColor=none;fillColor=none;" vertex="1" parent="1">
          <mxGeometry x="-540" y="-160" width="30" height="30" as="geometry" />
        </mxCell>
        <mxCell id="RB_fGYOwhIfE2NvK8vy9-60" value="F" style="text;html=1;align=center;verticalAlign=middle;resizable=0;points=[];autosize=1;strokeColor=none;fillColor=none;" vertex="1" parent="1">
          <mxGeometry x="-600" y="-90" width="30" height="30" as="geometry" />
        </mxCell>
        <mxCell id="RB_fGYOwhIfE2NvK8vy9-61" value="" style="edgeStyle=orthogonalEdgeStyle;rounded=0;orthogonalLoop=1;jettySize=auto;html=1;" edge="1" parent="1" source="RB_fGYOwhIfE2NvK8vy9-62" target="RB_fGYOwhIfE2NvK8vy9-63">
          <mxGeometry relative="1" as="geometry" />
        </mxCell>
        <mxCell id="RB_fGYOwhIfE2NvK8vy9-62" value="ปริ้น most name" style="rounded=0;whiteSpace=wrap;html=1;shape=parallelogram;perimeter=parallelogramPerimeter;fixedSize=1;" vertex="1" parent="1">
          <mxGeometry x="-679" y="270" width="160" height="40" as="geometry" />
        </mxCell>
        <mxCell id="RB_fGYOwhIfE2NvK8vy9-63" value="ปริ้น most grade" style="rounded=0;whiteSpace=wrap;html=1;shape=parallelogram;perimeter=parallelogramPerimeter;fixedSize=1;" vertex="1" parent="1">
          <mxGeometry x="-678.5" y="340" width="160" height="40" as="geometry" />
        </mxCell>
        <mxCell id="RB_fGYOwhIfE2NvK8vy9-64" value="กำหนดตัวแปร Age" style="rounded=0;whiteSpace=wrap;html=1;" vertex="1" parent="1">
          <mxGeometry x="70" y="-770" width="160" height="40" as="geometry" />
        </mxCell>
        <mxCell id="RB_fGYOwhIfE2NvK8vy9-65" style="edgeStyle=orthogonalEdgeStyle;rounded=0;orthogonalLoop=1;jettySize=auto;html=1;entryX=0.5;entryY=0;entryDx=0;entryDy=0;" edge="1" parent="1" source="RB_fGYOwhIfE2NvK8vy9-66" target="RB_fGYOwhIfE2NvK8vy9-11">
          <mxGeometry relative="1" as="geometry" />
        </mxCell>
        <mxCell id="RB_fGYOwhIfE2NvK8vy9-66" value="เอาข้อความใน&amp;nbsp;&amp;nbsp;a15-3.txt&amp;nbsp; ใส่ stuck age" style="rounded=0;whiteSpace=wrap;html=1;" vertex="1" parent="1">
          <mxGeometry x="-678.5" y="-420" width="160" height="40" as="geometry" />
        </mxCell>
      </root>
    </mxGraphModel>
  </diagram>
</mxfile>
